<svg xmlns="http://www.w3.org/2000/svg" viewBox="0 0 1080 1080"><defs><style>.cls-1{fill:#EFA2C2;}</style></defs><g id="Layer_2" data-name="Layer 2"><g id="Head"><path class="cls-1" d="M522.2,431.26c-19.34,0-35,15.45-35,34.51v33.68c0,19.06,15.67,34.52,35,34.52s35-15.46,35-34.52V465.77C557.21,446.71,541.53,431.26,522.2,431.26Z"/><path class="cls-1" d="M495,647.61c-31.74,17-63.82,23.2-95.34,18.48-23.54-3.53-38-12.18-38.19-12.31a7.5,7.5,0,0,0-7.86,12.77c.67.42,16.67,10.16,43,14.25a149.49,149.49,0,0,0,23,1.76c22.48,0,51-4.89,82.43-21.73A7.5,7.5,0,1,0,495,647.61Z"/><path class="cls-1" d="M354.43,474.94a35,35,0,0,0-70,0v33.67a35,35,0,0,0,70,0Z"/><path class="cls-1" d="M663.92,453.82l.18-.26c.08-.11.14-.24.21-.36l.16-.26c.07-.14.13-.28.19-.42l.12-.25a7,7,0,0,0,.24-.69c.69-2.33,16.82-58,15.44-131.17-.81-43.1-7.6-83.25-20.19-119.33-15.81-45.33-40.82-84.3-74.34-115.83-33.78-31.78-72.5-55-115.06-69.07C435.67,4.55,397.75-.86,358.18.11,290.23,1.76,234.71,21.7,214,32.38l-.8.41h0q-.75.39-1.5.84c-.4.24-.78.48-1.16.73l-.25.16c-7.63,5-12.94,12.78-15.79,23.15-.15.56-.27,1.13-.41,1.7-.06.28-.14.57-.2.86-.18.79-.34,1.59-.5,2.4,0,.17-.07.33-.1.5l-.28.06c-.68.13-1.35.28-2,.42l-2.82.6-2.08.49-2.7.64-2.12.55-2.61.69-2.13.61-2.56.74-2.13.67-2.5.79c-.71.23-1.42.48-2.13.72s-1.64.55-2.45.84-1.42.52-2.13.78l-2.4.89-2.11.83-2.36,1-2.11.89-2.32,1-2.09.94L147,78.29l-2.07,1-2.25,1.1-2.05,1-2.22,1.16-2,1.1-2.19,1.22c-.67.38-1.34.76-2,1.15L130,87.34l-2,1.2-2.13,1.33-2,1.25-2.09,1.38-1.94,1.31-2.07,1.43-1.91,1.36-2,1.49c-.63.47-1.26.93-1.88,1.41l-2,1.55-1.86,1.45-2,1.61c-.61.5-1.22,1-1.82,1.5l-2,1.67-1.79,1.54-1.94,1.74c-.59.52-1.18,1-1.76,1.59s-1.28,1.19-1.92,1.79-1.16,1.08-1.73,1.63l-1.91,1.87-1.68,1.66L87.73,121c-.55.56-1.1,1.12-1.65,1.7s-1.25,1.34-1.88,2-1.07,1.14-1.6,1.72l-1.89,2.12-1.53,1.72c-.64.74-1.28,1.49-1.91,2.24-.49.57-1,1.13-1.46,1.71-.66.79-1.31,1.6-2,2.41l-1.35,1.65c-.72.9-1.44,1.83-2.16,2.75l-1.09,1.4c-1.08,1.41-2.14,2.83-3.2,4.27-22.79,31-40.63,69.32-53,113.8-.32,1.14-.62,2.29-.92,3.45-.06.24-.13.47-.19.7-4,15.8-6.75,34.24-8.57,53.26l-.18,2c0,.28,0,.56-.08.84C-2.61,383.28.31,460.64,5.87,508.67c.17,1.5.35,3,.52,4.41,2.39,19.41,4.69,29.6,6.62,35.19v89.64a217.81,217.81,0,0,0,50.38,139,223.63,223.63,0,0,0,116.29,73.35,94.62,94.62,0,0,0-8.35,39v38.56a95.4,95.4,0,0,0,95.29,95.29H457.51a95.4,95.4,0,0,0,95.29-95.29V889.27A94.77,94.77,0,0,0,536,835.36c76.53-36.55,125.47-113,125.47-197.45V456l.29-.18.28-.18.32-.24.26-.2.3-.28a2.39,2.39,0,0,0,.23-.22,3.85,3.85,0,0,0,.27-.3c.07-.08.15-.16.21-.24Zm-56-321.18A279,279,0,0,1,646,205.78a339.87,339.87,0,0,1,15.09,61.86,411.09,411.09,0,0,1,4.35,52.62c0,1.77,0,3.53.07,5.27v2.07c0,1,0,2.09,0,3.13,0,.8,0,1.59,0,2.39s0,1.85,0,2.76,0,1.65,0,2.47,0,1.74-.05,2.6,0,1.69-.08,2.53,0,1.66-.08,2.48-.07,1.66-.1,2.49-.07,1.64-.1,2.44-.09,1.66-.13,2.48-.08,1.58-.13,2.37-.1,1.66-.15,2.49-.09,1.52-.14,2.27L664.3,363c0,.75-.1,1.5-.16,2.23s-.13,1.61-.19,2.41l-.18,2.18c-.07.8-.14,1.58-.21,2.36s-.13,1.43-.2,2.14-.15,1.54-.22,2.31l-.21,2.09c-.08.76-.17,1.51-.25,2.26s-.14,1.37-.22,2-.17,1.47-.26,2.2-.15,1.34-.23,2l-.27,2.14-.24,1.95c-.1.7-.19,1.39-.28,2.09s-.17,1.26-.25,1.88-.19,1.36-.29,2-.17,1.22-.26,1.82-.2,1.32-.29,2l-.27,1.76-.3,1.91-.27,1.71-.3,1.83-.27,1.65c-.1.6-.2,1.19-.31,1.77s-.18,1.07-.27,1.59-.2,1.15-.31,1.71-.18,1-.27,1.49-.2,1.12-.3,1.67l-.27,1.42c-.1.54-.2,1.06-.3,1.58l-.27,1.37-.3,1.51c-.09.42-.17.85-.26,1.27l-.3,1.46-.24,1.19c-.1.46-.2.92-.29,1.37s-.16.75-.24,1.11-.2.9-.29,1.33-.15.66-.22,1-.19.87-.29,1.29-.13.59-.2.88-.19.82-.28,1.21l-.18.79c-.09.39-.19.78-.27,1.15s-.11.45-.16.67l-.27,1.11a1.46,1.46,0,0,0-.05.2c-18-5.44-54.82-16.46-111.8-35.73l-3.43-7.9a13.69,13.69,0,0,0-7.89-7.44c-5.95-2.14-16.21-3.81-30.51,1.06-24.31-8.46-49.42-17.51-73.79-26.79l-.63-.24-4.4-1.68q-3.33-1.28-6.61-2.64l-1.76-.74q-2.48-1-4.91-2.11l-2.27-1c-1.56-.7-3.11-1.43-4.65-2.16l-1.12-.53A269.7,269.7,0,0,1,343,316.26l-.79-.65c-1.58-1.33-3.15-2.67-4.71-4l-1-.89Q331.16,306,326,300.91l-.74-.72c-1.73-1.7-3.46-3.42-5.17-5.18-20.81-21.38-38.38-45.57-53.39-68.59l-.4-.62q-1.62-2.49-3.19-5c-.23-.35-.45-.7-.67-1l-2.87-4.52-.71-1.13q-1.5-2.39-3-4.74l-.28-.45q-1.68-2.7-3.3-5.36c-1-1.6-1.95-3.21-2.91-4.82-.53-.88-1-1.77-1.56-2.65-.37-.65-.75-1.3-1.13-1.94-.83-1.45-1.65-2.89-2.46-4.34l0,0c-25-44.7-39.5-91.34-36.76-119.53.13-1.33.31-2.6.51-3.82.06-.38.13-.76.2-1.13s.16-.88.25-1.31q.21-.95.45-1.86C210.71,55.07,214,50,218.79,46.9l.18-.11c.41-.26.82-.5,1.25-.73l1.61-.83c10.1-5,32.61-14,62.87-20.83a385.19,385.19,0,0,1,68-9.1H353q2.77-.12,5.55-.18,4.31-.11,8.58-.11c5.28,0,10.52.14,15.73.37a311,311,0,0,1,83.31,15.05A292,292,0,0,1,569.56,90.6q3.08,2.73,6.09,5.58A263.7,263.7,0,0,1,607.89,132.64ZM403.58,801.48v6.29a41.5,41.5,0,0,1-83,0V768.64l1.9.26.67.09c1.37.19,2.74.37,4.12.53l1.39.17,3.41.38,2.18.22,2.67.26,3,.25,1.92.14c1.24.1,2.48.17,3.72.25l1.23.07c1.46.09,2.93.15,4.39.21l.61,0c1.65.07,3.3.12,5,.15h.1c2.17,0,4.34.08,6.51.08l2.43,0,2.56,0c1.27,0,2.55,0,3.82-.09l1.45-.05a298,298,0,0,0,30-2.54Zm7-48.71c-.24,0-.48,0-.73.08-7.63,1.29-15.34,2.25-23.07,2.9l-.17,0c-1.71.14-3.43.26-5.15.37l-1.6.1-4.17.22-3,.1c-1,0-2,.08-3,.1q-3.14.08-6.28.08c-1.87,0-3.75,0-5.62-.07l-1.68,0c-1.34,0-2.69-.08-4-.13l-1.83-.08c-1.39-.07-2.77-.14-4.15-.23l-1.54-.09c-1.82-.12-3.64-.26-5.45-.42l-1.81-.17-3.58-.35-2.75-.31-2.46-.3-3.25-.42-1.4-.2A274.6,274.6,0,0,1,121.14,613.6a56.59,56.59,0,0,0,19.43-29.78c.05-.18.1-.36.14-.55.18-.7.35-1.41.5-2.12.07-.32.13-.65.2-1,.11-.61.23-1.23.33-1.84s.13-.91.19-1.37.15-1,.2-1.56.11-1.21.16-1.82c0-.4.07-.8.09-1.19.06-1,.09-2,.09-3.09V528.4c0-.85,0-1.69-.07-2.53l0-.74c-.05-.73-.1-1.46-.17-2.19,0-.45-.1-.89-.16-1.33l-.09-.74a57.13,57.13,0,0,0-25.68-40.24l.74-.38,1.11-.56,2.75-1.42,1.14-.58,3-1.53,1-.51q4-2.07,8.18-4.27l1-.51,3.19-1.69,1.37-.72,3-1.59,1.43-.77,3.21-1.73,1.24-.66q4.49-2.43,9.18-5L159,458l3.4-1.89c.56-.31,1.12-.62,1.67-.94l3.21-1.8,1.76-1,3.38-1.93,1.6-.91c1.67-1,3.35-1.92,5-2.91q5.88-3.4,11.44-7.29c35.82-25,61.66-64.78,75.13-115.8.35-1.33.69-2.66,1-4l.3-1.22c.22-.92.44-1.83.65-2.74.11-.46.21-.91.32-1.36l.6-2.68c.09-.4.18-.8.26-1.2.26-1.19.51-2.37.74-3.54a2,2,0,0,0,.05-.24c.26-1.26.5-2.5.73-3.74.07-.35.13-.7.2-1.05l.48-2.65c.07-.39.13-.79.2-1.18.15-.86.29-1.71.43-2.55.06-.35.12-.7.17-1.05.17-1.06.34-2.12.49-3.16,0-.1,0-.2.05-.3.17-1.16.34-2.3.49-3.43,0-.27.07-.54.11-.81l.33-2.51.12-1c.1-.78.19-1.55.28-2.32,0-.29.07-.6.11-.89.1-.92.2-1.83.29-2.72,0-.11,0-.22,0-.33.1-1,.2-2,.29-3l.06-.6c.07-.76.13-1.5.2-2.24l.06-.83c.06-.67.11-1.32.16-2,0-.26,0-.51.05-.77.06-.72.1-1.43.15-2.13,0-.11,0-.23,0-.34a399.69,399.69,0,0,0,28.82,34.84l.25.26c1.27,1.37,2.57,2.73,3.88,4.08.42.44.83.89,1.26,1.33l1.13,1.13,1.18,1.18a288.62,288.62,0,0,0,83.93,59.38l1.77.82c1.38.63,2.76,1.26,4.15,1.87l3.37,1.45c1,.43,2,.87,3.07,1.29,2.24.93,4.5,1.83,6.8,2.72l4.85,1.85,1,.38,4.39,1.67.35.13c21.05,7.95,42.45,15.68,63.33,23,0,0,0,.06,0,.09a7.49,7.49,0,0,0,9.9,3.8l.56-.24c57.78,20,110.38,36.55,138.69,45.23v35c0,72.24-28.54,140.17-80.36,191.26A273.87,273.87,0,0,1,410.56,752.77ZM110.13,603.13l-1,.69c-.37.25-.74.5-1.12.74a43,43,0,0,1-23.36,6.85c-23.6,0-42.81-18.88-42.81-42.1V528.4c0-.58,0-1.16,0-1.74h0c0-.67.07-1.33.13-2,0,0,0-.1,0-.14.05-.56.12-1.11.19-1.65,0-.18.05-.36.07-.53.06-.4.13-.8.2-1.19l.18-1,.15-.67q.16-.78.36-1.53a.5.5,0,0,1,0-.13,42.72,42.72,0,0,1,39.08-31.44H83c.56,0,1.12-.05,1.69-.05s1.32,0,2,.05h0l.58,0h.1l1.23.09h.09l.58.05c.6.07,1.21.14,1.81.23l.62.1,1.26.22.73.15,1.28.29.56.13c.59.16,1.18.32,1.76.5l.58.18,1.3.44.6.22c.42.15.84.31,1.25.48l.6.25,1.2.53.6.28c.38.18.75.38,1.13.57.61.32,1.22.64,1.81,1l.23.13c.46.27.92.56,1.37.85l.08,0a42.51,42.51,0,0,1,19.13,29.94c0,.13,0,.26,0,.4,0,.39.09.79.13,1.19s0,.65.07,1l.06.85c0,.64,0,1.29,0,1.93v40.91c0,.83,0,1.65-.08,2.46,0,.28,0,.55-.07.83,0,.53-.09,1.07-.15,1.6,0,.33-.08.66-.13,1s-.14.92-.22,1.38-.12.72-.2,1.08-.17.73-.25,1.1c-.22.93-.46,1.85-.74,2.76,0,.12-.07.24-.11.36-.18.58-.39,1.17-.6,1.74,0,.09-.06.18-.1.27a42.36,42.36,0,0,1-14,18.7Zm-32-447.51q1.45-2,2.94-3.91c.32-.43.65-.84,1-1.26.66-.86,1.33-1.72,2-2.56l1.21-1.49,1.83-2.24,1.32-1.55c.59-.7,1.18-1.4,1.77-2.08L91.57,139c.59-.66,1.17-1.32,1.76-2s1-1,1.43-1.55,1.17-1.27,1.76-1.89L98,132c.59-.61,1.18-1.22,1.78-1.82s1-1,1.49-1.5l1.8-1.76,1.52-1.46,1.82-1.7,1.55-1.42,1.85-1.65c.52-.46,1-.92,1.57-1.37s1.25-1.07,1.88-1.6,1-.89,1.58-1.32l1.93-1.57c.53-.42,1-.85,1.58-1.26l2-1.54,1.56-1.19,2.07-1.52,1.54-1.12c.73-.52,1.47-1,2.2-1.53l1.45-1c.83-.56,1.67-1.11,2.51-1.66.4-.26.79-.53,1.19-.78q1.86-1.2,3.74-2.34l.55-.33c1.08-.65,2.16-1.29,3.25-1.92l1.39-.78c.82-.46,1.63-.92,2.46-1.37l1.6-.85,2.29-1.2c.56-.29,1.14-.57,1.71-.85l2.23-1.1c.59-.29,1.18-.56,1.78-.84s1.46-.69,2.2-1,1.22-.54,1.84-.81l2.2-1,1.87-.78,2.21-.89,1.9-.73,2.23-.83,1.93-.7,2.25-.78,1.94-.64,2.29-.73,2-.6,2.33-.68L183,81l2.39-.63,1.94-.5,2.47-.59,1.9-.44.47-.1c.16,15.8,3.89,34,10,52.72,8.15,25.42,21,53.24,37.42,80,1.09,1.78,2.16,3.51,3.22,5.21l1,1.6,2.16,3.45,1.36,2.17,2.14,3.37L250.5,229l3.14,4.86,1,1.48c1.09,1.68,2.18,3.33,3.25,4.94.06.08.11.16.16.24q1.34,2,2.66,4c0,.11,0,.23,0,.35a2.46,2.46,0,0,0,0,.26,6.66,6.66,0,0,0,0,.77h0V246c0,1.42.73,28.72-6.84,63l-.18.78c-.21.93-.42,1.86-.64,2.8l-.33,1.36c-.18.77-.36,1.53-.55,2.29-.14.57-.3,1.14-.44,1.71l-.51,2c-.21.81-.44,1.6-.66,2.4s-.46,1.72-.71,2.57-.41,1.41-.62,2.11c-.27.92-.53,1.84-.81,2.74-.19.62-.39,1.23-.58,1.84-.31,1-.61,2-.93,2.93-.17.54-.35,1.06-.53,1.59-.35,1-.69,2.07-1.05,3.09l-.49,1.38c-.39,1.07-.77,2.15-1.16,3.21l-.45,1.18c-.42,1.11-.85,2.22-1.28,3.32-.13.33-.27.66-.41,1-.46,1.15-.92,2.29-1.39,3.42l-.36.83c-.5,1.17-1,2.33-1.52,3.48-.1.24-.21.47-.32.7q-.79,1.78-1.62,3.54l-.27.54c-.58,1.21-1.16,2.41-1.75,3.6-.08.14-.15.28-.22.42-.62,1.22-1.24,2.43-1.88,3.63l-.16.29c-.66,1.24-1.33,2.46-2,3.67a2.25,2.25,0,0,0-.12.21c-.7,1.23-1.41,2.46-2.12,3.66a.75.75,0,0,0-.07.12c-.74,1.23-1.49,2.46-2.24,3.66l0,.08c-.77,1.22-1.55,2.43-2.34,3.62l0,0c-.79,1.2-1.6,2.39-2.42,3.56l0,0c-.83,1.18-1.66,2.33-2.5,3.48l-.05.05c-.84,1.14-1.69,2.26-2.55,3.37l0,0q-1.31,1.68-2.64,3.3l-.06.08c-.89,1.07-1.78,2.12-2.68,3.17l-.1.1c-.89,1-1.8,2.05-2.71,3.05l-.12.12c-.91,1-1.83,2-2.77,2.94l-.16.16c-.92,1-1.85,1.89-2.79,2.81l-.19.18c-.94.92-1.88,1.82-2.84,2.7l-.36.33c-.91.83-1.81,1.65-2.74,2.46l-.51.44c-.88.76-1.76,1.52-2.66,2.26l-.6.49c-.87.72-1.75,1.43-2.63,2.12l-.9.68c-.8.62-1.6,1.24-2.42,1.84l-1.12.81c-.75.54-1.5,1.09-2.26,1.61-.47.34-1,.66-1.44,1-.67.46-1.33.92-2,1.36s-1.34.86-2,1.28c-.51.32-1,.65-1.51,1-1.19.74-2.39,1.45-3.6,2.16-29,16.8-53,29-72.34,38.86l-.87.44-.4-.08h0l-.93-.21-.09,0-1.19-.24-.08,0-.34-.06-.67-.12-.28-.05h-.08l-1-.16h-.06l-1.29-.18-.22,0-.27,0c-.18,0-.35-.05-.53-.06h0l-.83-.07h0l-.92-.08-.55,0-.57,0-.6,0h0c-.88,0-1.76-.07-2.64-.07s-2,0-2.93.08l-.48,0c-.82,0-1.64.1-2.45.18l-.27,0a57.37,57.37,0,0,0-49.84,42.46c0,.07,0,.14-.05.21-.19.75-.37,1.51-.53,2.28-.07.32-.13.65-.2,1-.1.52-.2,1-.28,1.57s-.16,1-.23,1.52-.1.72-.14,1.09c-.07.62-.14,1.25-.19,1.88,0,.15,0,.29,0,.43-1.09,1.85-2.08,3.76-3,5.73C20,506.56,16.11,462.65,15.2,415.18c-1.11-61.61,2.94-114.36,11.35-147.12q.45-1.77.93-3.48C39.39,221.85,56.43,185.19,78.14,155.62ZM74.92,767.34A202.83,202.83,0,0,1,28,637.91v-57.2a58,58,0,0,0,80.31,40.68A289.38,289.38,0,0,0,305.59,766v28h-39c-.94,0-1.87,0-2.8,0l-.63,0c-.77,0-1.55.06-2.32.11l-.43,0A94.79,94.79,0,0,0,207,815l-.12.1c-.6.48-1.2,1-1.79,1.48l-.61.51-1,.87a95,95,0,0,0-16.33,18.71A208.54,208.54,0,0,1,74.92,767.34ZM537.8,927.83a80.38,80.38,0,0,1-80.29,80.29H266.62a80.38,80.38,0,0,1-80.29-80.29V889.27A80.1,80.1,0,0,1,212.55,830l.32-.29c.73-.66,1.48-1.3,2.24-1.94l.7-.58c.74-.62,1.51-1.21,2.28-1.8.53-.4,1.08-.8,1.63-1.19l.67-.49a80.78,80.78,0,0,1,33-13.59h.05c.69-.12,1.39-.22,2.09-.32l1.66-.21,1.76-.2c1-.09,2-.17,3-.23l1.06,0c1.18-.05,2.38-.09,3.58-.09h39a56.49,56.49,0,0,0,113,0h38.95c1.29,0,2.58,0,3.86.1h.38q1.78.1,3.54.27l.67.07c1.11.11,2.21.26,3.3.42l.84.13c1.06.16,2.11.35,3.16.56l.88.18c1.05.22,2.09.46,3.12.73l.74.19c1.09.29,2.18.59,3.25.93l.36.11a80.43,80.43,0,0,1,56.19,76.59ZM526.31,823.35A95.18,95.18,0,0,0,488.1,799l-.85-.28-1.32-.43A95,95,0,0,0,457.51,794H418.58V766.56A288.63,288.63,0,0,0,568,688.14c40.14-39.57,67-88.71,78.5-142.21v92C646.51,717.71,599.51,789.92,526.31,823.35Z"/><path class="cls-1" d="M99.4,551.64a4.47,4.47,0,0,0-4.47,4.46c0,4.5-4.45,7.22-8.76,7.25H86.1c-5.71,0-11.85-4.48-12-17.08-.21-15.71,6-22.93,12.25-23.12,3.67-.13,7.86,2.57,8.15,8.72a4.46,4.46,0,1,0,8.92-.42c-.47-9.92-7.66-17.23-16.82-17.23h-.52c-10.61.32-21.19,10.38-20.91,32.15.23,17.91,10.66,25.89,20.94,25.89h.13c9.89-.06,17.63-7.16,17.63-16.17A4.46,4.46,0,0,0,99.4,551.64Z"/><path class="cls-1" d="M306.82,413.75a7.46,7.46,0,0,0,3-.65c14.07-6.26,19.61-5.62,20.76-5.37a7.5,7.5,0,0,0,10.22-10.85c-3.21-3.79-12.29-8.5-37.07,2.51a7.5,7.5,0,0,0,3.05,14.36Z"/></g></g></svg>