<svg xmlns="http://www.w3.org/2000/svg" viewBox="0 0 1080 1080">
<defs><style>.cls-1{fill:#867190;}.cls-2{fill:#EFA2C2;}</style></defs><g id="Layer_2" data-name="Layer 2"><g id="Lens"><g id="Headset"><path class="cls-1" d="M598.36,7.5H240.43c-22.16,0-40.12,17.71-40.12,39.56V99H39.43a31.93,31.93,0,0,0,0,63.86H200.31v28.32c0,21.85,18,39.56,40.12,39.56H598.36c22.16,0,40.13-17.71,40.13-39.56V47.06C638.49,25.21,620.52,7.5,598.36,7.5Z"/><path class="cls-2" d="M660.07,0H240.43c-26.26,0-47.62,21.11-47.62,47.06V91.54H39.43a39.43,39.43,0,0,0,0,78.86H192.81v20.82c0,25.95,21.36,47.06,47.62,47.06H660.07c26.26,0,47.62-21.11,47.62-47.06V47.06C707.69,21.11,686.33,0,660.07,0ZM39.43,155.4a24.43,24.43,0,0,1,0-48.86H192.81V155.4Zm201,67.88c-18,0-32.62-14.38-32.62-32.06V47.06c0-17.68,14.63-32.06,32.62-32.06h26.88a46.6,46.6,0,0,0-12.8,32.06V191.22a46.6,46.6,0,0,0,12.8,32.06Z"/></g></g></g></svg>