<?xml version="1.0" encoding="utf-8"?>
<!-- Generator: Adobe Illustrator 25.4.0, SVG Export Plug-In . SVG Version: 6.00 Build 0)  -->
<svg version="1.1" xmlns="http://www.w3.org/2000/svg" xmlns:xlink="http://www.w3.org/1999/xlink" x="0px" y="0px"
	 viewBox="0 0 1080 1080" style="enable-background:new 0 0 1080 1080;" xml:space="preserve">
<style type="text/css">
	.st0{fill:#1F6D8C;stroke:#2291BE;stroke-width:17.5131;stroke-linejoin:round;stroke-miterlimit:10.5469;}
	.st1{fill:#F2B63C;stroke:#1F6D8C;stroke-width:12.255;stroke-linejoin:round;stroke-miterlimit:10.5469;}
	.st2{fill:#D29579;stroke:#1F6D8C;stroke-width:12.255;stroke-linejoin:round;stroke-miterlimit:10.5469;}
	.st3{fill:#D29579;stroke:#1F6D8C;stroke-width:12.0167;stroke-linejoin:round;stroke-miterlimit:10.5469;}
	.st4{fill:#1F6D8C;stroke:#1F6D8C;stroke-width:12.255;stroke-linejoin:round;stroke-miterlimit:10.5469;}
	.st5{fill:none;stroke:#1F6D8C;stroke-width:12.255;stroke-linecap:round;stroke-linejoin:round;stroke-miterlimit:10.5469;}
	.st6{fill:#1F6D8C;stroke:#2291BE;stroke-width:22.0709;stroke-linejoin:round;stroke-miterlimit:10.5469;}
	.st7{fill:#1F6D8C;stroke:#2291BE;stroke-width:16.9451;stroke-linejoin:round;stroke-miterlimit:10.5469;}
	.st8{fill:#D29579;stroke:#1F6D8C;stroke-width:8.9258;stroke-linecap:round;stroke-linejoin:round;stroke-miterlimit:10.5469;}
	.st9{fill:none;stroke:#1F6D8C;stroke-width:14.3463;stroke-linecap:round;stroke-linejoin:round;stroke-miterlimit:10.5469;}
	.st10{fill:#4EA3C4;stroke:#2291BE;stroke-width:12.255;stroke-linejoin:round;stroke-miterlimit:10.5469;}
	.st11{fill:#1F6D8C;stroke:#2291BE;stroke-width:12.255;stroke-linejoin:round;stroke-miterlimit:10.5469;}
	.st12{fill:#A7727D;}
	.st13{fill:#1F6D8C;}
	.st14{fill:#2291BE;}
	.st15{fill:#EDDBC7;}
	.st16{fill:#F8EAD8;}
	.st17{fill:#F9F5E7;}
</style>
<g id="Base_00000173875213036353196570000002652109552626074260_">
	<g id="Base">
		<path class="st0" d="M434.6,146.2h203.8c118.7,0,214.8,94.8,214.8,211.8v311.3c0,117-96.2,211.8-214.8,211.8H434.6
			c-118.7,0-214.8-94.8-214.8-211.8V358C219.8,241,316,146.2,434.6,146.2z"/>
		<path class="st1" d="M465.9,832.8h190.9c48.5,0,87.8,39.3,87.8,87.8v38.6c0,48.5-39.3,87.8-87.8,87.8H465.9
			c-48.5,0-87.8-39.3-87.8-87.8v-38.6C378.1,872.1,417.4,832.8,465.9,832.8z"/>
		<path class="st2" d="M561.4,725.3L561.4,725.3c27.1,0,49,21.9,49,49v64.8c0,27.1-21.9,49-49,49l0,0c-27.1,0-49-21.9-49-49v-64.8
			C512.4,747.2,534.3,725.3,561.4,725.3z"/>
		<path class="st3" d="M562.6,84.7L562.6,84.7c155.7,0,282,124.5,282,278v154.8c0,153.6-126.3,278-282,278l0,0
			c-155.7,0-282-124.5-282-278V362.7C280.6,209.1,406.9,84.7,562.6,84.7z"/>
		<path class="st4" d="M721.5,462.6L721.5,462.6c19.3,0,35,15.5,35,34.5v33.7c0,19.1-15.7,34.5-35,34.5l0,0c-19.3,0-35-15.5-35-34.5
			v-33.7C686.5,478,702.2,462.6,721.5,462.6z"/>
		<path class="st5" d="M556.8,691.5c0,0,60.3,37.2,141-6"/>
		<path class="st4" d="M518.7,471.8L518.7,471.8c19.3,0,35,15.5,35,34.5v33.7c0,19.1-15.7,34.5-35,34.5l0,0c-19.3,0-35-15.5-35-34.5
			v-33.7C483.7,487.2,499.4,471.8,518.7,471.8z"/>
		<path class="st6" d="M467.4,277c0,0,5.1,137.7-92.8,194.5c-97.9,56.8-137.3,60.4-148.8,105S193,389,219.5,293.9
			c16.8-60.5,61.8-172.3,178.8-192.9C556,73.3,467.4,277,467.4,277z"/>
		<path class="st7" d="M445.2,238.9c40.3,65.7,86,128,171.5,160.8c112.1,43,240.4,81.1,240.4,81.1s66-224.2-77-358.7
			C637-12.5,451.4,52.1,416,70.8C380.7,89.4,404.9,173.2,445.2,238.9z"/>
		<path class="st2" d="M283.9,510.1L283.9,510.1c27.8,0,50.3,22.2,50.3,49.6v40.9c0,27.4-22.5,49.6-50.3,49.6l0,0
			c-27.8,0-50.3-22.2-50.3-49.6v-40.9C233.6,532.3,256.2,510.1,283.9,510.1z"/>
		<path class="st8" d="M298.2,563c-0.9-18.7-29.8-20-29.3,14.7c0.4,29,29.8,24.9,29.8,9.8"/>
		<path class="st9" d="M534.4,433.1c0,0-5-5.9-28.3,4.5"/>
		<path class="st9" d="M730.2,429.3c0,0-12-9-35.4,1.4"/>
	</g>
</g>
<g id="HMD" xmlns:vectornator="http://vectornator.io">
	<g id="Headset" vectornator:layerName="Headset">
		<path class="st10" d="M225.6,474h171.6c17.6,0,31.9,14.3,31.9,31.9l0,0c0,17.6-14.3,31.9-31.9,31.9H225.6
			c-17.6,0-31.9-14.3-31.9-31.9l0,0C193.7,488.3,208,474,225.6,474z"/>
		<path class="st10" d="M426.6,382.5h357.9c22.2,0,40.1,17.7,40.1,39.6v144.2c0,21.8-18,39.6-40.1,39.6H426.6
			c-22.2,0-40.1-17.7-40.1-39.6V422C386.5,400.2,404.4,382.5,426.6,382.5z"/>
		<path class="st11" d="M488.3,382.5h357.9c22.2,0,40.1,17.7,40.1,39.6v144.2c0,21.8-18,39.6-40.1,39.6H488.3
			c-22.2,0-40.1-17.7-40.1-39.6V422C448.2,400.2,466.1,382.5,488.3,382.5z"/>
	</g>
</g>
<g id="Extras">
	<g>
		<rect x="370.9" y="-171.6" class="st12" width="163.5" height="140.5"/>
	</g>
	<rect x="207.4" y="-171.6" class="st13" width="163.5" height="140.5"/>
	<rect x="43.9" y="-171.6" class="st14" width="163.5" height="140.5"/>
	<g>
		<rect x="534.4" y="-171.6" class="st15" width="163.5" height="140.5"/>
	</g>
	<g>
		<rect x="697.9" y="-171.6" class="st16" width="163.5" height="140.5"/>
	</g>
	<g>
		<rect x="861.5" y="-171.6" class="st17" width="163.5" height="140.5"/>
	</g>
</g>
</svg>
